<svg xmlns="http://www.w3.org/2000/svg" viewBox="0 0 1024 1024">
<!-- App icon / favicon: a piano keyboard (F–B, black keys 3|2|3) bent into a tuner dial, needle on the green, in-tune D.
     Same drawing as App/Resources/AppIcon.icon; generated by Design/AppIcon/make_dial.py. -->
<clipPath id="tile"><rect x="36" y="36" width="952" height="952" rx="214"/></clipPath>
<g clip-path="url(#tile)">
<svg x="36" y="36" width="952" height="952" viewBox="0 0 1024 1024">
<defs>
  <radialGradient id="bg" cx="50%" cy="40%" r="75%">
    <stop offset="0" stop-color="#1B2231"/><stop offset="0.55" stop-color="#11151D"/><stop offset="1" stop-color="#0A0C10"/>
  </radialGradient>
  <radialGradient id="ivory" gradientUnits="userSpaceOnUse" cx="512" cy="716" r="486">
    <stop offset="0.58" stop-color="#CFCCC4"/><stop offset="0.66" stop-color="#EDEAE3"/><stop offset="1" stop-color="#FBFAF6"/>
  </radialGradient>
  <radialGradient id="green" gradientUnits="userSpaceOnUse" cx="512" cy="716" r="486">
    <stop offset="0.58" stop-color="#1FA85C"/><stop offset="0.66" stop-color="#3DDC84"/><stop offset="1" stop-color="#9CF5C2"/>
  </radialGradient>
  <radialGradient id="ebony" gradientUnits="userSpaceOnUse" cx="512" cy="716" r="486">
    <stop offset="0.70" stop-color="#050608"/><stop offset="0.93" stop-color="#23262E"/><stop offset="1" stop-color="#3A3E48"/>
  </radialGradient>
  <linearGradient id="needle" x1="0" y1="1" x2="0" y2="0">
    <stop offset="0" stop-color="#E08A2E"/><stop offset="1" stop-color="#FFC677"/>
  </linearGradient>
  <radialGradient id="glow" gradientUnits="userSpaceOnUse" cx="512" cy="370" r="230">
    <stop offset="0" stop-color="#3DDC84" stop-opacity="0.7"/><stop offset="1" stop-color="#3DDC84" stop-opacity="0"/>
  </radialGradient>
  <radialGradient id="hub" cx="40%" cy="35%" r="70%">
    <stop offset="0" stop-color="#FFD08A"/><stop offset="1" stop-color="#D7822C"/>
  </radialGradient>
  <filter id="soft" x="-20%" y="-20%" width="140%" height="140%"><feGaussianBlur stdDeviation="10"/></filter>
</defs>
<rect width="1024" height="1024" fill="url(#bg)"/>
<circle cx="512" cy="370" r="230" fill="url(#glow)"/>
<path d="M259.48,581.73 L82.89,487.84 A486.00,486.00 0 0 1 941.11,487.84 L764.52,581.73 A286.00,286.00 0 0 0 259.48,581.73 Z" fill="#000" opacity="0.45" transform="translate(0 14)" filter="url(#soft)"/>
<path d="M253.79,562.29 L102.69,481.95 A471.50,471.50 0 0 1 137.99,428.90 L270.46,537.23 A300.50,300.50 0 0 0 253.79,562.29 Z" fill="#A9A59C" stroke="#A9A59C" stroke-width="20.0" stroke-linejoin="round"/>
<path d="M236.11,552.89 L102.69,481.95 A471.50,471.50 0 0 1 137.99,428.90 L254.96,524.55 A320.50,320.50 0 0 0 236.11,552.89 Z" fill="url(#ivory)" stroke="url(#ivory)" stroke-width="20.0" stroke-linejoin="round"/>
<path d="M288.82,514.78 L156.34,406.45 A471.50,471.50 0 0 1 201.32,361.33 L310.07,493.46 A300.50,300.50 0 0 0 288.82,514.78 Z" fill="#A9A59C" stroke="#A9A59C" stroke-width="20.0" stroke-linejoin="round"/>
<path d="M273.32,502.10 L156.34,406.45 A471.50,471.50 0 0 1 201.32,361.33 L297.35,478.00 A320.50,320.50 0 0 0 273.32,502.10 Z" fill="url(#ivory)" stroke="url(#ivory)" stroke-width="20.0" stroke-linejoin="round"/>
<path d="M332.46,475.03 L223.72,342.90 A471.50,471.50 0 0 1 276.65,307.44 L357.47,458.28 A300.50,300.50 0 0 0 332.46,475.03 Z" fill="#A9A59C" stroke="#A9A59C" stroke-width="20.0" stroke-linejoin="round"/>
<path d="M319.74,459.57 L223.72,342.90 A471.50,471.50 0 0 1 276.65,307.44 L348.01,440.63 A320.50,320.50 0 0 0 319.74,459.57 Z" fill="url(#ivory)" stroke="url(#ivory)" stroke-width="20.0" stroke-linejoin="round"/>
<path d="M383.03,444.58 L302.21,293.74 A471.50,471.50 0 0 1 361.05,269.31 L410.83,433.04 A300.50,300.50 0 0 0 383.03,444.58 Z" fill="#A9A59C" stroke="#A9A59C" stroke-width="20.0" stroke-linejoin="round"/>
<path d="M373.57,426.94 L302.21,293.74 A471.50,471.50 0 0 1 361.05,269.31 L405.00,413.89 A320.50,320.50 0 0 0 373.57,426.94 Z" fill="url(#ivory)" stroke="url(#ivory)" stroke-width="20.0" stroke-linejoin="round"/>
<path d="M438.57,424.61 L388.80,260.88 A471.50,471.50 0 0 1 451.28,248.43 L468.09,418.73 A300.50,300.50 0 0 0 438.57,424.61 Z" fill="#A9A59C" stroke="#A9A59C" stroke-width="20.0" stroke-linejoin="round"/>
<path d="M432.75,405.45 L388.80,260.88 A471.50,471.50 0 0 1 451.28,248.43 L466.12,398.80 A320.50,320.50 0 0 0 432.75,405.45 Z" fill="url(#ivory)" stroke="url(#ivory)" stroke-width="20.0" stroke-linejoin="round"/>
<path d="M496.95,415.88 L480.14,245.58 A471.50,471.50 0 0 1 543.86,245.58 L527.05,415.88 A300.50,300.50 0 0 0 496.95,415.88 Z" fill="#17964F" stroke="#17964F" stroke-width="20.0" stroke-linejoin="round"/>
<path d="M494.98,395.95 L480.14,245.58 A471.50,471.50 0 0 1 543.86,245.58 L529.02,395.95 A320.50,320.50 0 0 0 494.98,395.95 Z" fill="url(#green)" stroke="url(#green)" stroke-width="20.0" stroke-linejoin="round"/>
<path d="M555.91,418.73 L572.72,248.43 A471.50,471.50 0 0 1 635.20,260.88 L585.43,424.61 A300.50,300.50 0 0 0 555.91,418.73 Z" fill="#A9A59C" stroke="#A9A59C" stroke-width="20.0" stroke-linejoin="round"/>
<path d="M557.88,398.80 L572.72,248.43 A471.50,471.50 0 0 1 635.20,260.88 L591.25,405.45 A320.50,320.50 0 0 0 557.88,398.80 Z" fill="url(#ivory)" stroke="url(#ivory)" stroke-width="20.0" stroke-linejoin="round"/>
<path d="M613.17,433.04 L662.95,269.31 A471.50,471.50 0 0 1 721.79,293.74 L640.97,444.58 A300.50,300.50 0 0 0 613.17,433.04 Z" fill="#A9A59C" stroke="#A9A59C" stroke-width="20.0" stroke-linejoin="round"/>
<path d="M619.00,413.89 L662.95,269.31 A471.50,471.50 0 0 1 721.79,293.74 L650.43,426.94 A320.50,320.50 0 0 0 619.00,413.89 Z" fill="url(#ivory)" stroke="url(#ivory)" stroke-width="20.0" stroke-linejoin="round"/>
<path d="M666.53,458.28 L747.35,307.44 A471.50,471.50 0 0 1 800.28,342.90 L691.54,475.03 A300.50,300.50 0 0 0 666.53,458.28 Z" fill="#A9A59C" stroke="#A9A59C" stroke-width="20.0" stroke-linejoin="round"/>
<path d="M675.99,440.63 L747.35,307.44 A471.50,471.50 0 0 1 800.28,342.90 L704.26,459.57 A320.50,320.50 0 0 0 675.99,440.63 Z" fill="url(#ivory)" stroke="url(#ivory)" stroke-width="20.0" stroke-linejoin="round"/>
<path d="M713.93,493.46 L822.68,361.33 A471.50,471.50 0 0 1 867.66,406.45 L735.18,514.78 A300.50,300.50 0 0 0 713.93,493.46 Z" fill="#A9A59C" stroke="#A9A59C" stroke-width="20.0" stroke-linejoin="round"/>
<path d="M726.65,478.00 L822.68,361.33 A471.50,471.50 0 0 1 867.66,406.45 L750.68,502.10 A320.50,320.50 0 0 0 726.65,478.00 Z" fill="url(#ivory)" stroke="url(#ivory)" stroke-width="20.0" stroke-linejoin="round"/>
<path d="M753.54,537.23 L886.01,428.90 A471.50,471.50 0 0 1 921.31,481.95 L770.21,562.29 A300.50,300.50 0 0 0 753.54,537.23 Z" fill="#A9A59C" stroke="#A9A59C" stroke-width="20.0" stroke-linejoin="round"/>
<path d="M769.04,524.55 L886.01,428.90 A471.50,471.50 0 0 1 921.31,481.95 L787.89,552.89 A320.50,320.50 0 0 0 769.04,524.55 Z" fill="url(#ivory)" stroke="url(#ivory)" stroke-width="20.0" stroke-linejoin="round"/>
<path d="M217.08,496.90 L128.83,424.74 L150.45,398.30 L238.70,470.47 Z" fill="#0A0C10" opacity="0.55" stroke="#0A0C10" stroke-width="14" stroke-linejoin="round" filter="url(#soft)" transform="translate(0 6)"/>
<path d="M216.23,488.46 L132.63,420.09 L146.65,402.95 L230.26,471.31 Z" fill="url(#ebony)" stroke="url(#ebony)" stroke-width="14" stroke-linejoin="round"/>
<line x1="214.7" y1="472.9" x2="142.0" y2="413.4" stroke="#FFFFFF" stroke-opacity="0.16" stroke-width="5" stroke-linecap="round"/>
<path d="M265.60,443.48 L193.16,355.46 L219.52,333.76 L291.97,421.78 Z" fill="#0A0C10" opacity="0.55" stroke="#0A0C10" stroke-width="14" stroke-linejoin="round" filter="url(#soft)" transform="translate(0 6)"/>
<path d="M266.42,435.03 L197.79,351.64 L214.89,337.57 L283.52,420.96 Z" fill="url(#ebony)" stroke="url(#ebony)" stroke-width="14" stroke-linejoin="round"/>
<line x1="268.0" y1="419.5" x2="208.2" y2="346.9" stroke="#FFFFFF" stroke-opacity="0.16" stroke-width="5" stroke-linecap="round"/>
<path d="M323.63,400.57 L269.79,300.08 L299.89,283.96 L353.73,384.44 Z" fill="#0A0C10" opacity="0.55" stroke="#0A0C10" stroke-width="14" stroke-linejoin="round" filter="url(#soft)" transform="translate(0 6)"/>
<path d="M326.08,392.45 L275.08,297.25 L294.60,286.79 L345.60,381.99 Z" fill="url(#ebony)" stroke="url(#ebony)" stroke-width="14" stroke-linejoin="round"/>
<line x1="330.6" y1="377.5" x2="286.3" y2="294.7" stroke="#FFFFFF" stroke-opacity="0.16" stroke-width="5" stroke-linecap="round"/>
<path d="M458.96,352.45 L447.77,239.00 L481.75,235.65 L492.95,349.10 Z" fill="#0A0C10" opacity="0.55" stroke="#0A0C10" stroke-width="14" stroke-linejoin="round" filter="url(#soft)" transform="translate(0 6)"/>
<path d="M464.34,345.89 L453.74,238.41 L475.78,236.24 L486.39,343.72 Z" fill="url(#ebony)" stroke="url(#ebony)" stroke-width="14" stroke-linejoin="round"/>
<line x1="474.3" y1="333.9" x2="465.1" y2="240.3" stroke="#FFFFFF" stroke-opacity="0.16" stroke-width="5" stroke-linecap="round"/>
<path d="M531.05,349.10 L542.25,235.65 L576.23,239.00 L565.04,352.45 Z" fill="#0A0C10" opacity="0.55" stroke="#0A0C10" stroke-width="14" stroke-linejoin="round" filter="url(#soft)" transform="translate(0 6)"/>
<path d="M537.61,343.72 L548.22,236.24 L570.26,238.41 L559.66,345.89 Z" fill="url(#ebony)" stroke="url(#ebony)" stroke-width="14" stroke-linejoin="round"/>
<line x1="549.7" y1="333.9" x2="558.9" y2="240.3" stroke="#FFFFFF" stroke-opacity="0.16" stroke-width="5" stroke-linecap="round"/>
<path d="M670.27,384.44 L724.11,283.96 L754.21,300.08 L700.37,400.57 Z" fill="#0A0C10" opacity="0.55" stroke="#0A0C10" stroke-width="14" stroke-linejoin="round" filter="url(#soft)" transform="translate(0 6)"/>
<path d="M678.40,381.99 L729.40,286.79 L748.92,297.25 L697.92,392.45 Z" fill="url(#ebony)" stroke="url(#ebony)" stroke-width="14" stroke-linejoin="round"/>
<line x1="693.4" y1="377.5" x2="737.7" y2="294.7" stroke="#FFFFFF" stroke-opacity="0.16" stroke-width="5" stroke-linecap="round"/>
<path d="M732.03,421.78 L804.48,333.76 L830.84,355.46 L758.40,443.48 Z" fill="#0A0C10" opacity="0.55" stroke="#0A0C10" stroke-width="14" stroke-linejoin="round" filter="url(#soft)" transform="translate(0 6)"/>
<path d="M740.48,420.96 L809.11,337.57 L826.21,351.64 L757.58,435.03 Z" fill="url(#ebony)" stroke="url(#ebony)" stroke-width="14" stroke-linejoin="round"/>
<line x1="756.0" y1="419.5" x2="815.8" y2="346.9" stroke="#FFFFFF" stroke-opacity="0.16" stroke-width="5" stroke-linecap="round"/>
<path d="M785.30,470.47 L873.55,398.30 L895.17,424.74 L806.92,496.90 Z" fill="#0A0C10" opacity="0.55" stroke="#0A0C10" stroke-width="14" stroke-linejoin="round" filter="url(#soft)" transform="translate(0 6)"/>
<path d="M793.74,471.31 L877.35,402.95 L891.37,420.09 L807.77,488.46 Z" fill="url(#ebony)" stroke="url(#ebony)" stroke-width="14" stroke-linejoin="round"/>
<line x1="809.3" y1="472.9" x2="882.0" y2="413.4" stroke="#FFFFFF" stroke-opacity="0.16" stroke-width="5" stroke-linecap="round"/>
<path d="M493,716 L508.5,444.0 Q512.0,436.0 515.5,444.0 L531,716 Z" fill="#000" opacity="0.35" filter="url(#soft)" transform="translate(0 8)"/>
<path d="M493,716 L508.5,444.0 Q512.0,436.0 515.5,444.0 L531,716 Z" fill="url(#needle)"/>
<circle cx="512" cy="722" r="54" fill="#000" opacity="0.4" filter="url(#soft)"/>
<circle cx="512" cy="716" r="50" fill="url(#hub)"/>
<circle cx="512" cy="716" r="31" fill="#0F1115"/>
<circle cx="512" cy="716" r="19" fill="url(#hub)"/>
</svg>
</g>
</svg>
